<svg id="图层_1" data-name="图层 1" xmlns="http://www.w3.org/2000/svg" viewBox="0 0 387.06 86.67"><defs><style>.cls-1{fill:#fff;}</style></defs><title>未标题-1</title><polygon class="cls-1" points="17.48 16.35 58.3 16.35 58.3 55.12 67.82 55.12 67.82 7.94 62.53 7.94 58.3 7.94 17.48 7.94 10.55 7.94 7.96 7.94 7.96 55.12 17.48 55.12 17.48 16.35"/><polygon class="cls-1" points="387.06 46.97 387.06 38.56 328.03 38.56 328.03 8.45 318.51 8.45 318.51 38.56 305.19 38.56 305.19 46.97 318.51 46.97 318.51 75.68 318.51 81.24 318.51 86.67 327.91 81.24 328.03 81.24 328.03 81.17 341.29 73.51 341.29 62.52 328.03 70.18 328.03 46.97 343.75 46.97 343.75 61.68 343.78 61.68 343.75 61.74 387.06 86.67 387.06 75.68 353.27 56.24 353.27 46.97 387.06 46.97"/><polygon class="cls-1" points="158.87 49.79 179.22 49.79 179.22 41.38 158.87 41.38 158.87 18.54 179.23 18.54 179.23 10.13 127.06 10.13 127.06 18.54 149.35 18.54 149.35 74.87 140.69 74.87 140.69 31.38 131.17 31.38 131.17 74.87 127.45 74.87 127.45 83.28 131.17 83.28 140.69 83.28 149.35 83.28 158.87 83.28 182.03 83.28 182.03 74.87 158.87 74.87 158.87 49.79"/><polygon class="cls-1" points="43.01 50 43.03 50 43.03 21.24 33.51 21.24 33.51 46.03 0 74.17 0 86.16 43.03 50.03 43.01 50"/><polygon class="cls-1" points="267.49 16.59 255.22 16.59 255.22 5.81 245.7 5.81 245.7 16.59 216.84 16.59 216.84 16.48 207.32 16.48 207.32 60.52 199.21 84.9 208.42 84.9 216.84 61.45 216.84 44.8 229.11 44.8 227.76 67.76 218.56 67.76 218.56 76.16 227.27 76.16 237.14 76.16 239.47 36.39 238.91 36.39 229.6 36.39 216.84 36.39 216.84 25 245.7 25 245.7 50.48 245.76 50.48 245.73 50.5 254.78 62.66 245.73 72.02 245.73 84.9 245.89 84.9 260.46 70.29 271.4 84.96 282.62 85.36 266.8 63.94 276.93 53.78 276.88 53.72 277.01 53.72 277.01 37.61 267.49 34.15 267.49 49.52 261.06 56.17 255.22 48.26 255.22 25 267.49 25 267.49 18.19 282.62 23.77 282.62 13.64 267.49 8.06 267.49 16.59"/><polygon class="cls-1" points="68.51 74.62 47.32 74.62 47.32 55.51 37.8 55.51 37.8 83.03 43.34 83.03 47.32 83.03 68.51 83.03 71.5 83.03 78.03 83.03 78.03 66.75 68.51 63.28 68.51 74.62"/><polygon class="cls-1" points="107.65 75.43 107.65 83.1 127.45 71.67 127.45 61.47 116.84 67.6 116.84 40.63 116.84 36.43 116.84 32.23 98.41 32.23 98.41 40.63 107.65 40.63 107.65 72.9 107.65 75.43"/><polygon class="cls-1" points="379.75 6.22 335.29 24.63 335.29 35.08 379.75 16.67 379.75 6.22"/><polygon class="cls-1" points="120.96 24.61 114.14 10.13 103.13 10.13 109.95 24.61 120.96 24.61"/></svg>