<svg id="图层_1" data-name="图层 1" xmlns="http://www.w3.org/2000/svg" viewBox="0 0 60 60"><defs><style>.cls-1{fill:#2497c9;}</style></defs><title>未标题-2</title><path class="cls-1" d="M59.84,47H0V27a8.37,8.37,0,0,1,8.36-8.36H19.55v2.86H8.36A5.5,5.5,0,0,0,2.87,27V44.17H57V27a5.5,5.5,0,0,0-5.49-5.5H39.05V18.67H51.48A8.37,8.37,0,0,1,59.84,27Z"/><path class="cls-1" d="M40.48,47H18.26v-29a8.88,8.88,0,0,1,8.87-8.87H31.6a8.88,8.88,0,0,1,8.88,8.87ZM21.12,44.17H37.61V18.06a6,6,0,0,0-6-6H27.13a6,6,0,0,0-6,6Z"/><path class="cls-1" d="M27,22.68V20.8h3.62V31.9H28.46V22.68Z"/><path class="cls-1" d="M12.85,38v1.88H5.37L8.2,36.36c.78-1,2.41-2.9,2.41-4.15,0-.8-.51-1.8-1.42-1.8s-1.42,1.06-1.37,1.9H5.52c.15-2.13,1.37-3.78,3.65-3.78a3.53,3.53,0,0,1,3.61,3.57,6.18,6.18,0,0,1-1.93,4L9.22,38Z"/><path class="cls-1" d="M46.53,31.87a3.26,3.26,0,0,1,3.4-3.19,3,3,0,0,1,3.2,3.13,2.76,2.76,0,0,1-1.06,2.31,2.92,2.92,0,0,1,1.43,2.71,3.44,3.44,0,0,1-3.7,3.53,3.63,3.63,0,0,1-3.68-3.5H48.3a1.59,1.59,0,0,0,1.59,1.62,1.8,1.8,0,0,0-.07-3.55l-.4,0V33.42h.23a1.36,1.36,0,0,0,1.42-1.54,1.31,1.31,0,0,0-1.27-1.41,1.33,1.33,0,0,0-1.21,1.4Z"/></svg>