<svg id="图层_1" data-name="图层 1" xmlns="http://www.w3.org/2000/svg" viewBox="0 0 60 60"><defs><style>.cls-1{fill:#2497c9;}</style></defs><title>未标题-2</title><path class="cls-1" d="M51,40.86H9.65a8.09,8.09,0,0,1-8.08-8.08V19.85a6.33,6.33,0,0,1,6.32-6.32H52.78a6.32,6.32,0,0,1,6.32,6.32V32.78A8.08,8.08,0,0,1,51,40.86ZM7.89,16.39a3.46,3.46,0,0,0-3.46,3.46V32.78A5.22,5.22,0,0,0,9.65,38H51a5.22,5.22,0,0,0,5.22-5.22V19.85a3.46,3.46,0,0,0-3.46-3.46Z"/><path class="cls-1" d="M35.84,50h-11a2.64,2.64,0,0,1-2.43-2.85V39.25h2.87V47.1H35.41V39.25h2.86v7.86A2.63,2.63,0,0,1,35.84,50Z"/><path class="cls-1" d="M22.76,25.8v.28c0,3.13-1.6,5.92-5.05,5.92-3.24,0-5.28-2.74-5.28-5.8s2.1-5.89,5.42-5.89A4.77,4.77,0,0,1,22.23,23l-1.91,1a2.83,2.83,0,0,0-2.53-1.77c-2.09,0-3.12,2.14-3.12,4s1,3.88,3.13,3.88a2.61,2.61,0,0,0,2.53-2.52H18V25.8Z"/><path class="cls-1" d="M33.64,25.8v.28c0,3.13-1.6,5.92-5.05,5.92-3.24,0-5.28-2.74-5.28-5.8s2.1-5.89,5.41-5.89A4.77,4.77,0,0,1,33.11,23L31.2,24a2.83,2.83,0,0,0-2.53-1.77c-2.09,0-3.13,2.14-3.13,4s1.05,3.88,3.14,3.88a2.62,2.62,0,0,0,2.53-2.52H28.86V25.8Z"/><path class="cls-1" d="M38.22,28.17h0l2.21-7.72h1.28L44,28.17h0l2.18-7.57h2.27L44.76,31.92H43.17L41,24.66h0l-2.09,7.26H37.25L33.72,20.6H36Z"/></svg>