<svg id="图层_1" data-name="图层 1" xmlns="http://www.w3.org/2000/svg" viewBox="0 0 60 60"><defs><style>.cls-1{fill:#2497c9;}</style></defs><title>未标题-2</title><path class="cls-1" d="M29.9,51.08A21.16,21.16,0,1,1,51.06,29.93,21.18,21.18,0,0,1,29.9,51.08Zm0-39.45a18.3,18.3,0,1,0,18.3,18.3A18.32,18.32,0,0,0,29.9,11.63Z"/><path class="cls-1" d="M33.68,20.39h4.66L33.6,28.7h3.65v1.8H32.48l-.57,1v1h5.34v1.8H31.91v6.65h-4V34.29H22.56v-1.8H27.9v-1l-.65-1H22.56V28.7h3.65l-4.74-8.31h4.66l3.76,7.14Z"/><path class="cls-1" d="M45.2,51.56H14.61a6.34,6.34,0,0,1-6.34-6.33V14.63a6.34,6.34,0,0,1,6.34-6.34H45.2a6.34,6.34,0,0,1,6.34,6.34v30.6A6.34,6.34,0,0,1,45.2,51.56ZM14.61,11.15a3.48,3.48,0,0,0-3.48,3.48v30.6a3.48,3.48,0,0,0,3.48,3.47H45.2a3.48,3.48,0,0,0,3.48-3.47V14.63a3.48,3.48,0,0,0-3.48-3.48Z"/></svg>