<svg id="图层_1" data-name="图层 1" xmlns="http://www.w3.org/2000/svg" viewBox="0 0 60 60"><defs><style>.cls-1{fill:#2497c9;}</style></defs><title>未标题-2</title><path class="cls-1" d="M29.92,28.71A12.45,12.45,0,1,1,42.36,16.27,12.45,12.45,0,0,1,29.92,28.71Zm0-22a9.58,9.58,0,1,0,9.58,9.58A9.59,9.59,0,0,0,29.92,6.69Z"/><path class="cls-1" d="M48.19,50.18H11.65a9.78,9.78,0,0,1-9.77-9.76V37.18a9.78,9.78,0,0,1,9.77-9.76v2.86a6.92,6.92,0,0,0-6.91,6.9v3.24a6.92,6.92,0,0,0,6.91,6.9H48.19a6.92,6.92,0,0,0,6.91-6.9V37.18a6.92,6.92,0,0,0-6.91-6.9V27.42A9.78,9.78,0,0,1,58,37.18v3.24A9.78,9.78,0,0,1,48.19,50.18Z"/><path class="cls-1" d="M28.36,36.77h0l-2.64,7.35h-.78l-2.54-7.35h0l-1,7.2H19l2-11.91h1.6l2.86,7.65,2.74-7.65h1.63L31.56,44H29.28Z"/><path class="cls-1" d="M40.31,35.44a3.33,3.33,0,0,0-2.55-1.23c-2.17,0-3.42,2-3.42,4s1.3,3.91,3.4,3.91a3.55,3.55,0,0,0,2.57-1.23v2.69a6.07,6.07,0,0,1-2.63.7,5.86,5.86,0,0,1-5.68-6,5.91,5.91,0,0,1,5.73-6.2,5.37,5.37,0,0,1,2.58.68Z"/></svg>