<svg id="图层_1" data-name="图层 1" xmlns="http://www.w3.org/2000/svg" viewBox="0 0 60 60"><defs><style>.cls-1{fill:#2497c9;}</style></defs><title>未标题-2</title><path class="cls-1" d="M23.92,34.93h0l2.54-7.67h2.38L24.45,39h-1.3L18.8,27.26h2.39Z"/><path class="cls-1" d="M31.69,38.64H29.48V27.26h2.21Z"/><path class="cls-1" d="M35.53,38.64H33.31V27.26h3c2.38,0,3.94.95,3.94,3.54,0,2.41-1.32,3.59-3.64,3.59h-1.1Zm0-6.09H36c1.31,0,2-.29,2-1.77s-.84-1.68-2.08-1.68h-.39Z"/><path class="cls-1" d="M17.78,52.43a3.58,3.58,0,0,1-3.51-4.17l1.58-9.2a5.65,5.65,0,0,0-1.62-5L7.54,27.54a3.56,3.56,0,0,1,2-6.08l9.23-1.34A5.65,5.65,0,0,0,23,17l4.13-8.36a3.56,3.56,0,0,1,6.39,0L37.66,17a5.68,5.68,0,0,0,4.26,3.1l9.24,1.34a3.57,3.57,0,0,1,2,6.08l-6.68,6.51a5.68,5.68,0,0,0-1.63,5l1.58,9.2A3.56,3.56,0,0,1,41.23,52L33,47.67a5.63,5.63,0,0,0-5.26,0L19.45,52A3.57,3.57,0,0,1,17.78,52.43Zm12.56-8.27a8.41,8.41,0,0,1,4,1l8.26,4.34a.71.71,0,0,0,.74,0,.68.68,0,0,0,.28-.69L42,39.54A8.53,8.53,0,0,1,44.45,32l6.68-6.51a.67.67,0,0,0,.18-.72.69.69,0,0,0-.57-.48L41.51,23a8.5,8.5,0,0,1-6.41-4.66L31,9.92a.7.7,0,0,0-.63-.39.69.69,0,0,0-.63.39l-4.13,8.37A8.52,8.52,0,0,1,19.17,23L9.93,24.29a.69.69,0,0,0-.57.48.69.69,0,0,0,.18.72L16.22,32a8.5,8.5,0,0,1,2.45,7.54l-1.57,9.2a.7.7,0,0,0,.27.69.71.71,0,0,0,.74,0l8.26-4.34A8.48,8.48,0,0,1,30.34,44.16Z"/></svg>