<svg id="图层_1" data-name="图层 1" xmlns="http://www.w3.org/2000/svg" viewBox="0 0 60 60"><defs><style>.cls-1{fill:#2497c9;}.cls-2{fill:#fff;}</style></defs><title>未标题-2</title><path class="cls-1" d="M17.88,22.83h3.3l-3.36,5.9h2.59V30H17l-.41.71v.7h3.79v1.27H16.62V37.4H13.78V32.68H10V31.41h3.78v-.7L13.32,30H10V28.73h2.58l-3.36-5.9h3.31l2.66,5.06Z"/><path class="cls-1" d="M15.68,45A15.82,15.82,0,1,1,31.49,29.17,15.83,15.83,0,0,1,15.68,45Zm0-28.77a13,13,0,1,0,13,13A13,13,0,0,0,15.68,16.22Z"/><path class="cls-1" d="M55.29,45.74h-.38a4.66,4.66,0,0,1-4.66-4.66V18.41a4.66,4.66,0,0,1,4.66-4.66h.38A4.66,4.66,0,0,1,60,18.41V41.08A4.66,4.66,0,0,1,55.29,45.74Zm-.38-29.13a1.81,1.81,0,0,0-1.8,1.8V41.08a1.81,1.81,0,0,0,1.8,1.8h.38a1.81,1.81,0,0,0,1.8-1.8V18.41a1.81,1.81,0,0,0-1.8-1.8Z"/><path class="cls-1" d="M51.72,24.63a1.42,1.42,0,0,1-.76-.22l-8.38-5.2H36.94a1.44,1.44,0,0,1,0-2.87H43.4L52.47,22a1.43,1.43,0,0,1-.75,2.65Z"/><path class="cls-2" d="M36.47,30.43H23.89s-2.91.24-3,4,4,3.07,4,3.07,6.37-.55,9.44,2.28a11.84,11.84,0,0,0,11.71,2.28,13.86,13.86,0,0,0,5.34-3.23"/><path class="cls-1" d="M42.23,44.17a13.26,13.26,0,0,1-8.86-3.33c-2.1-1.94-6.64-2-8.29-1.91a5.54,5.54,0,0,1-4.21-1,4.25,4.25,0,0,1-1.4-3.5c.09-4,2.85-5.29,4.3-5.4h12.7a1.43,1.43,0,1,1,0,2.86H24c-.39.06-1.59.44-1.64,2.61,0,.91.3,1.18.4,1.27a2.8,2.8,0,0,0,1.95.35h.11c.29,0,7-.57,10.53,2.65a10.45,10.45,0,0,0,10.24,2,12.77,12.77,0,0,0,4.77-2.84,1.44,1.44,0,0,1,2-.11,1.41,1.41,0,0,1,.13,2,15.1,15.1,0,0,1-5.92,3.63A12.45,12.45,0,0,1,42.23,44.17Z"/></svg>